<svg width="71" height="71" viewBox="0 0 71 71" fill="none" xmlns="http://www.w3.org/2000/svg">
<ellipse cx="35.0812" cy="48.2377" rx="32.8878" ry="19.7327" fill="#D1E7FF"/>
<ellipse cx="35.0812" cy="48.2377" rx="21.9252" ry="9.86634" fill="#D1E7FF"/>
<path d="M11.0841 49.3998C10.6018 46.9441 11.0841 42.3179 19.5911 38.8757C20.6896 38.5069 21.8854 39.0566 22.3208 40.1304C22.7561 41.2043 22.2807 42.4315 21.2355 42.9318C17.2012 44.5653 15.0197 46.6701 15.3924 48.5556C15.9625 51.5265 22.6277 55.9115 35.0812 55.9115C47.5347 55.9115 54.211 51.5265 54.8139 48.5885C55.1866 46.681 52.9941 44.5762 48.9599 42.9318C48.1869 42.6723 47.6217 42.0053 47.4927 41.2002C47.3637 40.395 47.6922 39.5848 48.3455 39.0968C48.9987 38.6088 49.8688 38.5236 50.6043 38.8757C59.4511 42.4604 59.5059 47.4484 59.1222 49.4217C56.261 63.9033 13.9234 63.9471 11.0841 49.3998Z" fill="#4468E2"/>
<path d="M35.0812 70.1629C0.220123 70.1629 -12.3649 42.5153 14.4496 30.4564C15.5331 30.0466 16.7484 30.5503 17.2243 31.6065C17.7001 32.6626 17.2723 33.9067 16.2474 34.4468C8.77095 37.7904 4.38591 42.9428 4.38591 48.2378C4.38591 57.7423 18.44 65.7779 35.0812 65.7779C51.7224 65.7779 65.7765 57.7423 65.7765 48.2378C65.7765 42.9428 61.3914 37.7904 53.9149 34.4468C52.8901 33.9067 52.4622 32.6626 52.9381 31.6065C53.4139 30.5503 54.6293 30.0466 55.7128 30.4564C82.6479 42.5701 69.734 70.1629 35.0812 70.1629Z" fill="#4468E2"/>
<path d="M39.4663 47.1415H30.6962V35.0826L24.1187 32.8901V21.9275C24.1187 18.2948 27.0635 15.35 30.6962 15.35H39.4663C43.099 15.35 46.0438 18.2948 46.0438 21.9275V32.8901L39.4663 35.0826V47.1415Z" fill="#D1E7FF"/>
<path d="M35.0812 2.19482C38.7139 2.19482 41.6588 5.1397 41.6588 8.77238C41.6588 12.4051 38.7139 15.3499 35.0812 15.3499C31.4485 15.3499 28.5037 12.4051 28.5037 8.77238C28.5037 5.1397 31.4485 2.19482 35.0812 2.19482Z" fill="#D1E7FF"/>
<path d="M42.3603 13.6617C44.8184 10.0039 44.1802 5.09011 40.8695 2.18148C37.5587 -0.727158 32.6036 -0.727159 29.2928 2.18147C25.9821 5.09011 25.3439 10.0039 27.802 13.6617C24.2873 14.8904 21.9315 18.2043 21.926 21.9275V32.8901C21.9252 33.8356 22.5305 34.6752 23.4279 34.973L28.5036 36.6612V47.1415C28.5036 48.3524 29.4852 49.334 30.6961 49.334H39.4662C40.6771 49.334 41.6587 48.3524 41.6587 47.1415V36.6612L46.7344 34.973C47.6318 34.6752 48.2371 33.8356 48.2363 32.8901L48.2363 21.9275C48.2307 18.2043 45.875 14.8904 42.3603 13.6617ZM35.0811 4.38735C37.5029 4.38735 39.4662 6.3506 39.4662 8.77239C39.4662 11.1942 37.5029 13.1574 35.0811 13.1574C32.6594 13.1574 30.6961 11.1942 30.6961 8.77239C30.6961 6.3506 32.6594 4.38735 35.0811 4.38735ZM43.8512 31.3115L38.7755 32.9997C37.8782 33.2976 37.2728 34.1371 37.2737 35.0826L37.2737 44.949H32.8886V35.0826C32.8895 34.1371 32.2841 33.2976 31.3867 32.9997L26.3111 31.3115V21.9275C26.3111 19.5057 28.2743 17.5425 30.6961 17.5425H39.4662C41.888 17.5425 43.8512 19.5057 43.8512 21.9275V31.3115Z" fill="#4468E2"/>
</svg>
