<svg width="54" height="68" viewBox="0 0 54 68" fill="none" xmlns="http://www.w3.org/2000/svg">
<path d="M34.7442 50.8754C35.235 50.8754 35.8047 50.9067 36.4195 50.9379C36.997 50.9656 37.6334 50.9925 38.2942 50.9301L44.2642 64.7267H31.392L28.5149 59.4104C27.8914 58.2684 26.2526 58.2684 25.6343 59.4104L22.7538 64.7267H9.88243L15.8577 50.9301C16.5349 50.9977 17.1852 50.9656 17.7766 50.9379C19.0044 50.8754 20.058 50.8208 20.6571 50.983C21.2632 51.146 22.1442 51.72 23.177 52.3825C24.2071 53.051 25.4531 53.8505 27.0972 53.8505C28.7412 53.8505 29.9916 53.051 31.0208 52.3825C32.051 51.7191 32.9363 51.146 33.5372 50.983V50.9752C33.8398 50.898 34.2508 50.8702 34.7442 50.8754ZM29.2433 4.25351C30.178 4.85962 31.2437 5.68598 32.6935 6.07531C34.1433 6.46378 35.4761 6.27735 36.5868 6.22446C37.6924 6.16549 38.4971 6.2418 38.9124 6.48025C39.3321 6.72478 39.7977 7.38031 40.3033 8.36362C40.8096 9.35386 41.316 10.6086 42.3765 11.669C43.4431 12.7304 44.69 13.2368 45.6741 13.7423C46.6635 14.2487 47.3217 14.7135 47.5662 15.134C47.8064 15.5494 47.8775 16.348 47.8202 17.4544C47.7656 18.5652 47.5766 19.9031 47.9694 21.3521C48.357 22.8019 49.1885 23.8632 49.7938 24.7988C50.3947 25.7301 50.7285 26.4697 50.7285 26.9484C50.7285 27.427 50.3947 28.1589 49.7938 29.0945C49.1894 30.024 48.3578 31.0854 47.9694 32.5352C47.58 33.985 47.7665 35.3264 47.8202 36.4328C47.8775 37.5436 47.8064 38.344 47.5662 38.7593C47.3225 39.1755 46.6635 39.6403 45.6741 40.1449C44.69 40.6513 43.4439 41.1612 42.3765 42.2225C41.316 43.2839 40.8096 44.5351 40.3032 45.5245C39.8125 46.4861 39.3598 47.1234 38.948 47.3758L38.4025 47.5795C37.9551 47.6793 37.349 47.7053 36.5868 47.6697C35.476 47.6108 34.1476 47.4261 32.6935 47.8145C31.2437 48.2039 30.1789 49.0302 29.2433 49.6346C28.312 50.2355 27.5801 50.5745 27.0972 50.5745C26.6176 50.5745 25.8867 50.2355 24.9511 49.6346C24.0215 49.0302 22.9558 48.2039 21.506 47.8145C20.051 47.4261 18.7183 47.6116 17.6127 47.6697C16.7994 47.7105 16.1577 47.6793 15.7025 47.5613L15.2689 47.3992C14.857 47.1512 14.3931 46.5043 13.8919 45.5254C13.3855 44.5351 12.8792 43.2848 11.8187 42.2234C10.7565 41.1621 9.51043 40.6522 8.52106 40.1458C7.53168 39.6403 6.87355 39.1764 6.63249 38.7602C6.39404 38.3448 6.3212 37.5445 6.37496 36.4337C6.43392 35.3273 6.61862 33.9911 6.23102 32.5361C5.84342 31.0862 5.00666 30.0249 4.40662 29.0954C3.80051 28.1597 3.47187 27.4288 3.47187 26.9493C3.47187 26.4706 3.80051 25.731 4.40662 24.7997C5.00579 23.8641 5.84255 22.8027 6.23102 21.3529C6.61862 19.9049 6.43392 18.5712 6.37496 17.4605C6.32033 16.354 6.39317 15.5502 6.63249 15.1357C6.87268 14.7143 7.53169 14.2504 8.52106 13.744C9.51043 13.2385 10.7565 12.7321 11.8187 11.6708C12.8792 10.6103 13.3855 9.35559 13.8919 8.36535C14.3966 7.38118 14.8674 6.72564 15.2828 6.48199C15.6981 6.24353 16.5019 6.16636 17.6136 6.22619C18.7191 6.27908 20.0571 6.46551 21.5069 6.07705C22.9567 5.68771 24.0215 4.86136 24.9519 4.25525C25.8867 3.65521 26.6185 3.31617 27.098 3.31617C27.5801 3.3153 28.312 3.65347 29.2433 4.25351ZM27.0972 0.0358887C25.4531 0.0358887 24.2062 0.834497 23.177 1.50391C22.1442 2.17245 21.2632 2.75081 20.6571 2.91209C20.058 3.07077 19.0044 3.01181 17.7766 2.94938C16.5514 2.89042 15.066 2.81758 13.6439 3.64047C12.221 4.46249 11.5438 5.78136 10.9837 6.87392C10.4244 7.96648 9.94052 8.91076 9.5035 9.35386C9.05954 9.79088 8.12132 10.2661 7.0279 10.8253C5.93534 11.3846 4.62167 12.067 3.79964 13.4952C2.97676 14.9172 3.04092 16.3931 3.10336 17.6226C3.16232 18.847 3.22562 19.8988 3.0626 20.504C2.89959 21.1049 2.32209 21.9851 1.65355 23.0195C0.989342 24.0496 0.195068 25.3044 0.195068 26.9475C0.195068 28.5916 0.989342 29.8376 1.65355 30.8677C2.32209 31.9013 2.90045 32.7823 3.0626 33.3884C3.22562 33.9885 3.16232 35.0403 3.10336 36.269C3.04092 37.4925 2.97676 38.9691 3.79964 40.3912C4.6208 41.8193 5.93534 42.5052 7.0279 43.061C8.12219 43.6212 9.0604 44.0946 9.5035 44.5377C9.94052 44.9756 10.4252 45.919 10.9837 47.0125C11.4224 47.87 11.9418 48.8681 12.8367 49.6546L5.88591 65.71C5.41507 66.7887 6.20588 68 7.38515 68.0043H23.725C24.3293 68.0043 24.8817 67.6748 25.1661 67.1459L27.0711 63.628L28.9814 67.1459C29.2658 67.674 29.8216 68.0043 30.4225 68.0043H46.7615C47.9434 68.0043 48.7394 66.7938 48.2651 65.71L41.323 49.6858C42.2395 48.8958 42.7676 47.8839 43.215 47.0125C43.7752 45.919 44.2547 44.9756 44.6917 44.5377C45.1357 44.0946 46.0791 43.6203 47.1708 43.061C48.2651 42.5052 49.5735 41.8193 50.3956 40.3912C51.2184 38.9692 51.1595 37.4916 51.097 36.269C51.0329 35.0403 50.9704 33.9885 51.1326 33.3884C51.2956 32.7823 51.8774 31.9013 52.5417 30.8677C53.2102 29.8376 54.0001 28.5916 54.0001 26.9475C54.0001 25.3035 53.2111 24.0496 52.5417 23.0195C51.8774 21.9851 51.2948 21.1049 51.1326 20.504C50.9696 19.904 51.0329 18.847 51.097 17.6226C51.1595 16.3939 51.2193 14.9172 50.3956 13.4952C49.5744 12.067 48.2651 11.3846 47.1708 10.8253C46.0782 10.2652 45.1348 9.79088 44.6917 9.35386C44.2547 8.91076 43.7752 7.96561 43.215 6.87392C42.6557 5.78136 41.9785 4.46249 40.5513 3.64047C39.1283 2.81758 37.643 2.89042 36.4186 2.95025C35.1908 3.01268 34.1372 3.07164 33.5381 2.91296C32.9372 2.75168 32.051 2.17332 31.0217 1.50477C29.9916 0.835364 28.7421 0.0358887 27.0972 0.0358887Z" fill="#4468E2"/>
<path d="M35.5028 16.8544C35.0779 16.863 34.6765 17.0391 34.3782 17.3469L17.4591 34.1688C16.7949 34.801 16.7819 35.858 17.4288 36.5092C18.0739 37.1595 19.1309 37.1508 19.7674 36.491L36.6847 19.6681C37.7599 18.6293 36.996 16.8136 35.5028 16.8544Z" fill="#4468E2"/>
<path d="M22.301 18.7828C23.2626 19.7401 23.2678 21.2307 22.3148 22.1784C21.361 23.1331 19.854 23.1331 18.8924 22.1706C17.9307 21.2125 17.9307 19.7167 18.882 18.769C19.8349 17.8212 21.3341 17.8256 22.301 18.7828ZM24.6231 16.4703C22.4094 14.2669 18.7736 14.2574 16.5616 16.4564C14.3426 18.6597 14.353 22.2773 16.5702 24.4824C18.784 26.6857 22.4232 26.6952 24.6404 24.4902C26.8542 22.2912 26.8403 18.6736 24.6266 16.4694L24.6231 16.4703Z" fill="#4468E2"/>
<path d="M35.2532 31.662C36.2148 32.6202 36.2148 34.1185 35.2619 35.068C34.3098 36.0166 32.8062 36.0166 31.8446 35.0593C30.8777 34.1021 30.8777 32.6028 31.8307 31.6551C32.788 30.7047 34.2916 30.7047 35.2532 31.662ZM37.5788 29.3546C35.3616 27.1513 31.7223 27.1418 29.5086 29.3468C27.2949 31.5458 27.3001 35.1677 29.5173 37.3676C31.731 39.5709 35.3755 39.5805 37.5892 37.3815C39.8012 35.1773 39.7925 31.5545 37.5788 29.3546Z" fill="#4468E2"/>
</svg>
