<svg width="73" height="73" viewBox="0 0 73 73" fill="none" xmlns="http://www.w3.org/2000/svg">
<path d="M61.6276 40.5001C63.2861 42.3543 65.9167 42.9928 68.2407 42.1051C70.5646 41.2174 72.0997 38.9878 72.0997 36.5001C72.0997 34.0124 70.5646 31.7827 68.2407 30.895C65.9167 30.0074 63.2861 30.6458 61.6276 32.5001H56.6976C56.16 29.7332 55.0681 27.1038 53.4876 24.7701L56.9776 21.2801C59.461 21.4172 61.7715 20.008 62.7863 17.7373C63.8011 15.4666 63.3098 12.8052 61.5511 11.0465C59.7924 9.28787 57.131 8.79655 54.8603 9.81136C52.5896 10.8262 51.1804 13.1367 51.3176 15.6201L47.8376 19.1101C45.4984 17.5329 42.8664 16.4413 40.0976 15.9001V10.9701C41.9518 9.3116 42.5903 6.68093 41.7026 4.35699C40.815 2.03305 38.5853 0.497924 36.0976 0.497925C33.6099 0.497924 31.3802 2.03305 30.4926 4.35699C29.6049 6.68093 30.2434 9.3116 32.0976 10.9701V15.9001C29.3316 16.4405 26.7028 17.5322 24.3676 19.1101L20.8776 15.6201C21.0147 13.1367 19.6056 10.8262 17.3349 9.81136C15.0642 8.79655 12.4028 9.28787 10.6441 11.0465C8.8854 12.8052 8.39408 15.4666 9.40889 17.7373C10.4237 20.008 12.7342 21.4172 15.2176 21.2801L18.7076 24.7601C17.1304 27.0993 16.0389 29.7312 15.4976 32.5001L10.5676 32.5001C8.90913 30.6458 6.27846 30.0074 3.95452 30.895C1.63059 31.7827 0.095458 34.0124 0.095459 36.5001C0.095459 38.9878 1.63059 41.2174 3.95453 42.1051C6.27846 42.9928 8.90913 42.3543 10.5676 40.5001H15.4976C16.0352 43.2669 17.1271 45.8963 18.7076 48.2301L15.2176 51.7201C12.7342 51.5829 10.4237 52.9921 9.40889 55.2628C8.39408 57.5335 8.8854 60.1949 10.6441 61.9536C12.4028 63.7123 15.0642 64.2036 17.3349 63.1888C19.6056 62.174 21.0147 59.8634 20.8776 57.3801L24.3676 53.8901C26.7013 55.4706 29.3308 56.5625 32.0976 57.1001L32.0976 62.0301C30.2434 63.6885 29.6049 66.3192 30.4926 68.6431C31.3802 70.9671 33.6099 72.5022 36.0976 72.5022C38.5853 72.5022 40.815 70.9671 41.7026 68.6431C42.5903 66.3192 41.9518 63.6885 40.0976 62.0301V57.1001C41.1898 56.8858 42.2632 56.5849 43.3076 56.2001C43.1719 56.9593 43.1016 57.7288 43.0976 58.5001C43.0976 66.2321 49.3656 72.5001 57.0976 72.5001C64.8296 72.5001 71.0976 66.232 71.0976 58.5001C71.0976 50.7681 64.8296 44.5001 57.0976 44.5001C56.5458 44.5012 55.9947 44.5379 55.4476 44.6101C56.0052 43.2869 56.4241 41.9096 56.6976 40.5001L61.6276 40.5001ZM57.0976 47.5001C63.1727 47.5001 68.0976 52.4249 68.0976 58.5001C68.0976 64.5752 63.1727 69.5001 57.0976 69.5001C51.0225 69.5001 46.0976 64.5752 46.0976 58.5001C46.0976 52.4249 51.0225 47.5001 57.0976 47.5001ZM54.0976 37.5001L53.9276 38.8101C53.6131 41.2295 52.8028 43.558 51.5476 45.6501L51.1176 45.8601L48.8276 43.5701L46.7076 45.6901L48.4876 47.5001C47.9639 47.912 47.4694 48.3598 47.0076 48.8401L45.2876 47.1301L43.1676 49.2501L45.1676 51.2501C44.9476 51.6201 44.7376 52.0001 44.5476 52.3901C42.6446 53.4279 40.5665 54.1059 38.4176 54.3901L37.0976 54.5001V63.5601L37.7676 64.0101C38.8647 64.7452 39.3521 66.1114 38.9678 67.375C38.5836 68.6386 37.4183 69.5023 36.0976 69.5023C34.7769 69.5023 33.6116 68.6386 33.2273 67.375C32.8431 66.1114 33.3305 64.7452 34.4276 64.0101L35.0976 63.5601V54.5001L33.7876 54.3301C31.21 53.9973 28.7358 53.1066 26.5376 51.7201L29.0276 49.2301L26.9076 47.1101L17.6676 56.3401L17.8276 57.1301C18.0842 58.4259 17.4631 59.737 16.2978 60.3592C15.1326 60.9815 13.6975 60.7683 12.7634 59.8342C11.8294 58.9002 11.6162 57.465 12.2384 56.2998C12.8606 55.1346 14.1718 54.5134 15.4676 54.7701L16.2576 54.9301L25.4876 45.6901L23.3676 43.5701L20.8776 46.0601C19.491 43.8618 18.6003 41.3877 18.2676 38.8101L18.0976 37.5001H9.03759L8.58759 38.1701C7.85241 39.2672 6.48621 39.7545 5.22264 39.3703C3.95907 38.9861 3.09538 37.8207 3.09538 36.5001C3.09538 35.1794 3.95907 34.014 5.22264 33.6298C6.48621 33.2456 7.85241 33.7329 8.58759 34.8301L9.03759 35.5001H18.0976L18.2676 34.1901C18.6003 31.6124 19.491 29.1383 20.8776 26.9401L23.3676 29.4301L25.4876 27.3101L16.2576 18.0701L15.4676 18.2301C14.1718 18.4867 12.8606 17.8656 12.2384 16.7003C11.6162 15.5351 11.8294 14.1 12.7634 13.1659C13.6975 12.2318 15.1326 12.0187 16.2979 12.6409C17.4631 13.2631 18.0842 14.5743 17.8276 15.8701L17.6676 16.6601L26.9076 25.8901L29.0276 23.7701L26.5376 21.2801C28.7358 19.8935 31.21 19.0028 33.7876 18.6701L35.0976 18.5001V9.44006L34.4276 8.99006C33.3305 8.25488 32.8431 6.88867 33.2273 5.62511C33.6116 4.36154 34.7769 3.49785 36.0976 3.49785C37.4183 3.49785 38.5836 4.36154 38.9678 5.6251C39.3521 6.88867 38.8647 8.25488 37.7676 8.99006L37.0976 9.44006V18.5001L38.4076 18.6701C40.9852 19.0028 43.4594 19.8935 45.6576 21.2801L43.1676 23.7701L45.2876 25.8901L54.5276 16.6601L54.3676 15.8701C54.111 14.5743 54.7321 13.2631 55.8973 12.6409C57.0626 12.0187 58.4977 12.2318 59.4318 13.1659C60.3658 14.1 60.579 15.5351 59.9568 16.7003C59.3346 17.8656 58.0234 18.4867 56.7276 18.2301L55.9376 18.0701L46.7076 27.3101L48.8276 29.4301L51.3176 26.9401C52.7056 29.1376 53.5964 31.612 53.9276 34.1901L54.0976 35.5001H63.1576L63.6076 34.8301C64.3428 33.7329 65.709 33.2456 66.9725 33.6298C68.2361 34.014 69.0998 35.1794 69.0998 36.5001C69.0998 37.8207 68.2361 38.9861 66.9725 39.3703C65.709 39.7545 64.3428 39.2672 63.6076 38.1701L63.1576 37.5001H54.0976Z" fill="#4468E2"/>
<path d="M36.0977 30.5001C32.7839 30.5001 30.0977 33.1864 30.0977 36.5001C30.0977 39.8138 32.7839 42.5001 36.0977 42.5001C39.4114 42.5001 42.0977 39.8138 42.0977 36.5001C42.0977 33.1864 39.4114 30.5001 36.0977 30.5001ZM36.0977 39.5001C34.4408 39.5001 33.0977 38.1569 33.0977 36.5001C33.0977 34.8432 34.4408 33.5001 36.0977 33.5001C37.7545 33.5001 39.0977 34.8432 39.0977 36.5001C39.0977 38.1569 37.7545 39.5001 36.0977 39.5001Z" fill="#4468E2"/>
<path d="M54.7875 65.7001L57.0975 66.5701L59.4075 65.7001C62.184 64.6603 64.0221 62.0048 64.0175 59.0401V52.5001L62.8575 52.7001C61.1473 52.9784 59.4073 52.4207 58.1775 51.2001L57.0975 50.0901L55.9875 51.1901C54.7427 52.4363 53.0131 53.0725 51.2575 52.9301L50.1775 52.8401V59.0401C50.1729 62.0048 52.011 64.6603 54.7875 65.7001ZM52.1775 54.9401C53.9974 54.8531 55.7331 54.1476 57.0975 52.9401C58.4611 54.128 60.209 54.7817 62.0175 54.7801V59.0801C62.022 61.2141 60.6973 63.1253 58.6975 63.8701L57.0975 64.4701L55.4975 63.8701C53.4977 63.1253 52.173 61.2141 52.1775 59.0801L52.1775 54.9401Z" fill="#4468E2"/>
<path d="M60.4476 57.2001L58.8476 56.0101L56.5976 59.0101L55.5176 57.9001L54.0776 59.2901L56.7976 62.0901L60.4476 57.2001Z" fill="#4468E2"/>
</svg>
