<svg width="132" height="116" viewBox="0 0 132 116" fill="none" xmlns="http://www.w3.org/2000/svg">
<g opacity="0.3">
<path d="M5.43785 10.925C8.32541 10.925 10.6663 8.59121 10.6663 5.71245C10.6663 2.83368 8.32541 0.5 5.43785 0.5C2.55029 0.5 0.209473 2.83368 0.209473 5.71245C0.209473 8.59121 2.55029 10.925 5.43785 10.925Z" fill="#A4CAFA"/>
<path d="M35.719 10.925C38.6065 10.925 40.9473 8.59121 40.9473 5.71245C40.9473 2.83368 38.6065 0.5 35.719 0.5C32.8314 0.5 30.4906 2.83368 30.4906 5.71245C30.4906 8.59121 32.8314 10.925 35.719 10.925Z" fill="#A4CAFA"/>
<path d="M65.9999 10.925C68.8875 10.925 71.2283 8.59121 71.2283 5.71245C71.2283 2.83368 68.8875 0.5 65.9999 0.5C63.1123 0.5 60.7715 2.83368 60.7715 5.71245C60.7715 8.59121 63.1123 10.925 65.9999 10.925Z" fill="#A4CAFA"/>
<path d="M96.2811 10.925C99.1687 10.925 101.51 8.59121 101.51 5.71245C101.51 2.83368 99.1687 0.5 96.2811 0.5C93.3935 0.5 91.0527 2.83368 91.0527 5.71245C91.0527 8.59121 93.3935 10.925 96.2811 10.925Z" fill="#A4CAFA"/>
<path d="M126.562 10.925C129.45 10.925 131.79 8.59121 131.79 5.71245C131.79 2.83368 129.45 0.5 126.562 0.5C123.674 0.5 121.333 2.83368 121.333 5.71245C121.333 8.59121 123.674 10.925 126.562 10.925Z" fill="#A4CAFA"/>
<path d="M5.43785 37.0958C8.32541 37.0958 10.6663 34.7621 10.6663 31.8833C10.6663 29.0046 8.32541 26.6709 5.43785 26.6709C2.55029 26.6709 0.209473 29.0046 0.209473 31.8833C0.209473 34.7621 2.55029 37.0958 5.43785 37.0958Z" fill="#A4CAFA"/>
<path d="M35.719 37.0958C38.6065 37.0958 40.9473 34.7621 40.9473 31.8833C40.9473 29.0046 38.6065 26.6709 35.719 26.6709C32.8314 26.6709 30.4906 29.0046 30.4906 31.8833C30.4906 34.7621 32.8314 37.0958 35.719 37.0958Z" fill="#A4CAFA"/>
<path d="M65.9999 37.0958C68.8875 37.0958 71.2283 34.7621 71.2283 31.8833C71.2283 29.0046 68.8875 26.6709 65.9999 26.6709C63.1123 26.6709 60.7715 29.0046 60.7715 31.8833C60.7715 34.7621 63.1123 37.0958 65.9999 37.0958Z" fill="#A4CAFA"/>
<path d="M96.2811 37.0958C99.1687 37.0958 101.51 34.7621 101.51 31.8833C101.51 29.0046 99.1687 26.6709 96.2811 26.6709C93.3935 26.6709 91.0527 29.0046 91.0527 31.8833C91.0527 34.7621 93.3935 37.0958 96.2811 37.0958Z" fill="#A4CAFA"/>
<path d="M126.562 37.0958C129.45 37.0958 131.79 34.7621 131.79 31.8833C131.79 29.0046 129.45 26.6709 126.562 26.6709C123.674 26.6709 121.333 29.0046 121.333 31.8833C121.333 34.7621 123.674 37.0958 126.562 37.0958Z" fill="#A4CAFA"/>
<path d="M5.43785 63.2126C8.32541 63.2126 10.6663 60.8789 10.6663 58.0001C10.6663 55.1213 8.32541 52.7876 5.43785 52.7876C2.55029 52.7876 0.209473 55.1213 0.209473 58.0001C0.209473 60.8789 2.55029 63.2126 5.43785 63.2126Z" fill="#A4CAFA"/>
<path d="M35.719 63.2126C38.6065 63.2126 40.9473 60.8789 40.9473 58.0001C40.9473 55.1213 38.6065 52.7876 35.719 52.7876C32.8314 52.7876 30.4906 55.1213 30.4906 58.0001C30.4906 60.8789 32.8314 63.2126 35.719 63.2126Z" fill="#A4CAFA"/>
<path d="M65.9999 63.2126C68.8875 63.2126 71.2283 60.8789 71.2283 58.0001C71.2283 55.1213 68.8875 52.7876 65.9999 52.7876C63.1123 52.7876 60.7715 55.1213 60.7715 58.0001C60.7715 60.8789 63.1123 63.2126 65.9999 63.2126Z" fill="#A4CAFA"/>
<path d="M96.2811 63.2126C99.1687 63.2126 101.51 60.8789 101.51 58.0001C101.51 55.1213 99.1687 52.7876 96.2811 52.7876C93.3935 52.7876 91.0527 55.1213 91.0527 58.0001C91.0527 60.8789 93.3935 63.2126 96.2811 63.2126Z" fill="#A4CAFA"/>
<path d="M126.562 63.2126C129.45 63.2126 131.79 60.8789 131.79 58.0001C131.79 55.1213 129.45 52.7876 126.562 52.7876C123.674 52.7876 121.333 55.1213 121.333 58.0001C121.333 60.8789 123.674 63.2126 126.562 63.2126Z" fill="#A4CAFA"/>
<path d="M5.43785 89.3835C8.32541 89.3835 10.6663 87.0497 10.6663 84.1709C10.6663 81.2922 8.32541 78.9585 5.43785 78.9585C2.55029 78.9585 0.209473 81.2922 0.209473 84.1709C0.209473 87.0497 2.55029 89.3835 5.43785 89.3835Z" fill="#A4CAFA"/>
<path d="M35.719 89.3835C38.6065 89.3835 40.9473 87.0497 40.9473 84.1709C40.9473 81.2922 38.6065 78.9585 35.719 78.9585C32.8314 78.9585 30.4906 81.2922 30.4906 84.1709C30.4906 87.0497 32.8314 89.3835 35.719 89.3835Z" fill="#A4CAFA"/>
<path d="M65.9999 89.3835C68.8875 89.3835 71.2283 87.0497 71.2283 84.1709C71.2283 81.2922 68.8875 78.9585 65.9999 78.9585C63.1123 78.9585 60.7715 81.2922 60.7715 84.1709C60.7715 87.0497 63.1123 89.3835 65.9999 89.3835Z" fill="#A4CAFA"/>
<path d="M96.2811 89.3835C99.1687 89.3835 101.51 87.0497 101.51 84.1709C101.51 81.2922 99.1687 78.9585 96.2811 78.9585C93.3935 78.9585 91.0527 81.2922 91.0527 84.1709C91.0527 87.0497 93.3935 89.3835 96.2811 89.3835Z" fill="#A4CAFA"/>
<path d="M126.562 89.3835C129.45 89.3835 131.79 87.0497 131.79 84.1709C131.79 81.2922 129.45 78.9585 126.562 78.9585C123.674 78.9585 121.333 81.2922 121.333 84.1709C121.333 87.0497 123.674 89.3835 126.562 89.3835Z" fill="#A4CAFA"/>
<path d="M5.43785 115.5C8.32541 115.5 10.6663 113.166 10.6663 110.288C10.6663 107.409 8.32541 105.075 5.43785 105.075C2.55029 105.075 0.209473 107.409 0.209473 110.288C0.209473 113.166 2.55029 115.5 5.43785 115.5Z" fill="#A4CAFA"/>
<path d="M35.719 115.5C38.6065 115.5 40.9473 113.166 40.9473 110.288C40.9473 107.409 38.6065 105.075 35.719 105.075C32.8314 105.075 30.4906 107.409 30.4906 110.288C30.4906 113.166 32.8314 115.5 35.719 115.5Z" fill="#A4CAFA"/>
<path d="M65.9999 115.5C68.8875 115.5 71.2283 113.166 71.2283 110.288C71.2283 107.409 68.8875 105.075 65.9999 105.075C63.1123 105.075 60.7715 107.409 60.7715 110.288C60.7715 113.166 63.1123 115.5 65.9999 115.5Z" fill="#A4CAFA"/>
<path d="M96.2811 115.5C99.1687 115.5 101.51 113.166 101.51 110.288C101.51 107.409 99.1687 105.075 96.2811 105.075C93.3935 105.075 91.0527 107.409 91.0527 110.288C91.0527 113.166 93.3935 115.5 96.2811 115.5Z" fill="#A4CAFA"/>
<path d="M126.562 115.5C129.45 115.5 131.79 113.166 131.79 110.288C131.79 107.409 129.45 105.075 126.562 105.075C123.674 105.075 121.333 107.409 121.333 110.288C121.333 113.166 123.674 115.5 126.562 115.5Z" fill="#A4CAFA"/>
</g>
</svg>
