<svg width="33" height="33" viewBox="0 0 33 33" fill="none" xmlns="http://www.w3.org/2000/svg">
<circle cx="16.5" cy="16.5" r="16.5" fill="#1C4961"/>
<path d="M16.1988 12.9221C12.5506 12.9221 9.58252 15.8903 9.58252 19.5384C9.58252 23.1866 12.5507 26.1548 16.1988 26.1548C19.847 26.1548 22.8151 23.1866 22.8151 19.5384C22.8151 15.8903 19.847 12.9221 16.1988 12.9221ZM16.1988 25.2422C13.0537 25.2422 10.4951 22.6835 10.4951 19.5384C10.4951 16.3934 13.0537 13.8347 16.1988 13.8347C19.3439 13.8347 21.9026 16.3934 21.9026 19.5384C21.9026 22.6835 19.3439 25.2422 16.1988 25.2422Z" fill="white"/>
<path d="M16.199 14.9375C13.6622 14.9375 11.5981 17.0015 11.5981 19.5383C11.5981 22.0752 13.6622 24.1392 16.199 24.1392C18.7363 24.1392 20.8004 22.0752 20.8004 19.5383C20.8003 17.0015 18.7363 14.9375 16.199 14.9375ZM16.199 23.2266C14.1653 23.2266 12.5108 21.5721 12.5108 19.5383C12.5108 17.5046 14.1653 15.8501 16.199 15.8501C18.2332 15.8501 19.8877 17.5046 19.8877 19.5383C19.8877 21.5721 18.2332 23.2266 16.199 23.2266Z" fill="white"/>
<path d="M27.1502 6.53394C26.8979 6.53394 26.6939 6.73804 26.6939 6.99023V11.6294C26.6939 12.0906 26.3187 12.4658 25.8574 12.4658H25.6841H24.2012H24.0283C23.5666 12.4658 23.1914 12.0906 23.1914 11.6294V6.99023C23.1914 6.73804 22.9873 6.53394 22.7351 6.53394C22.4829 6.53394 22.2788 6.73804 22.2788 6.99023V11.6294C22.2788 12.493 22.9096 13.2078 23.734 13.3487L23.4548 24.6299C23.445 25.0341 23.5951 25.4164 23.8776 25.7061C24.1602 25.9953 24.5385 26.1548 24.9426 26.1548C25.3472 26.1548 25.7255 25.9953 26.0081 25.7056C26.2906 25.4164 26.4407 25.0341 26.431 24.6299L26.1513 13.3487C26.9755 13.208 27.6065 12.4931 27.6065 11.6294V6.99023C27.6065 6.73804 27.4024 6.53394 27.1502 6.53394ZM25.3548 25.0685C25.1365 25.293 24.7492 25.293 24.5309 25.0685C24.4213 24.9566 24.3633 24.8087 24.3673 24.6522L24.6463 13.3785H25.2389L25.5184 24.6522C25.5224 24.8087 25.4644 24.9566 25.3548 25.0685Z" fill="white"/>
<path d="M24.9426 10.8688C25.1948 10.8688 25.3989 10.6647 25.3989 10.4125V6.99023C25.3989 6.73804 25.1948 6.53394 24.9426 6.53394C24.6904 6.53394 24.4863 6.73804 24.4863 6.99023V10.4125C24.4863 10.6647 24.6904 10.8688 24.9426 10.8688Z" fill="white"/>
<path d="M10.3117 10.0569C10.3117 7.89172 9.17803 5.47876 7.5516 5.47876C5.92513 5.47876 4.7915 7.89172 4.7915 10.0569C4.7915 11.6075 5.39207 12.815 6.34252 13.3617L6.06236 24.6291C6.05301 25.0341 6.20364 25.4165 6.4866 25.7065C6.76865 25.9957 7.14653 26.1548 7.54981 26.1548C7.95663 26.1548 8.33674 25.9939 8.6197 25.7012C8.90175 25.4106 9.04971 25.0288 9.03722 24.6286L8.76179 13.361C9.71156 12.814 10.3117 11.6069 10.3117 10.0569ZM5.70411 10.0569C5.70411 8.24105 6.63633 6.39135 7.55162 6.39135C8.46687 6.39135 9.39909 8.24105 9.39909 10.0569C9.39909 11.6798 8.6567 12.7702 7.55162 12.7702C6.4465 12.7702 5.70411 11.6798 5.70411 10.0569ZM8.12511 24.654C8.12956 24.8082 8.07298 24.9548 7.9647 25.0662C7.74588 25.2917 7.35958 25.2943 7.13944 25.0689C7.02937 24.9566 6.971 24.8077 6.97501 24.6509L7.24822 13.6647C7.34732 13.6765 7.44841 13.6828 7.55163 13.6828C7.65522 13.6828 7.75671 13.6764 7.85615 13.6645L8.12511 24.654Z" fill="white"/>
</svg>
