<svg width="33" height="33" viewBox="0 0 33 33" fill="none" xmlns="http://www.w3.org/2000/svg">
<circle cx="16.5" cy="16.5" r="16.5" fill="#1C4961"/>
<path d="M13.0541 13.8079H12.8295C12.269 13.8079 11.813 14.2641 11.813 14.8244V16.5167H12.4902V14.8244C12.4902 14.6372 12.6423 14.4851 12.8295 14.4851H13.0541C13.2412 14.4851 13.3931 14.6372 13.3931 14.8244V16.5167H14.0703V14.8244C14.0706 14.2641 13.6146 13.8079 13.0541 13.8079Z" fill="white"/>
<path d="M13.0541 21.2573H12.8295C12.269 21.2573 11.813 21.7135 11.813 22.2738V23.9662H12.4902V22.2738C12.4902 22.0867 12.6423 21.9345 12.8295 21.9345H13.0541C13.2412 21.9345 13.3931 22.0867 13.3931 22.2738V23.9662H14.0703V22.2738C14.0706 21.7135 13.6146 21.2573 13.0541 21.2573Z" fill="white"/>
<path d="M13.0541 17.4197H12.8295C12.269 17.4197 11.813 17.8759 11.813 18.4362V20.1285H12.4902V18.4362C12.4902 18.249 12.6423 18.0969 12.8295 18.0969H13.0541C13.2412 18.0969 13.3931 18.249 13.3931 18.4362V20.1285H14.0703V18.4362C14.0706 17.8759 13.6146 17.4197 13.0541 17.4197Z" fill="white"/>
<path d="M16.4401 13.8079H16.2155C15.6552 13.8079 15.1992 14.2641 15.1992 14.8244V16.5167H15.8764V14.8244C15.8764 14.6372 16.0286 14.4851 16.2155 14.4851H16.4401C16.6272 14.4851 16.7794 14.6372 16.7794 14.8244V16.5167H17.4566V14.8244C17.4568 14.2641 17.0008 13.8079 16.4401 13.8079Z" fill="white"/>
<path d="M16.4401 17.4197H16.2155C15.6552 17.4197 15.1992 17.8759 15.1992 18.4362V20.1285H15.8764V18.4362C15.8764 18.249 16.0286 18.0969 16.2155 18.0969H16.4401C16.6272 18.0969 16.7794 18.249 16.7794 18.4362V20.1285H17.4566V18.4362C17.4568 17.8759 17.0008 17.4197 16.4401 17.4197Z" fill="white"/>
<path d="M9.88293 10.5019L10.9166 10.9433L10.8166 9.82361L11.5554 8.9771L10.4599 8.72631L9.88293 7.76196L9.30595 8.72631L8.21045 8.9771L8.94928 9.82361L8.84928 10.9433L9.88293 10.5019ZM9.73891 9.3218L9.88315 9.08094L10.0274 9.3218L10.301 9.38433L10.1163 9.59607L10.1414 9.87575L9.88293 9.7656L9.62469 9.87575L9.64952 9.59607L9.46486 9.38433L9.73891 9.3218Z" fill="white"/>
<path d="M11.8417 9.06669L12.8758 8.62402L13.3884 8.84343L13.9085 9.05156L13.8087 7.94636L14.5489 7.10007L13.4523 6.84973L12.8755 5.88403L12.299 6.84973L11.2021 7.10007L11.9426 7.94636L11.8417 9.06669ZM12.732 7.44567L12.8758 7.20504L13.0196 7.44567L13.2927 7.50775L13.1083 7.71882L13.1335 7.99783L12.8758 7.88789L12.6182 7.99783L12.6435 7.71882L12.459 7.50775L12.732 7.44567Z" fill="white"/>
<path d="M15.3165 8.43409L16.3512 7.98939L17.386 8.43386L17.2833 7.31173L18.0113 6.46138L16.9275 6.21578L16.351 5.24805L15.7749 6.21578L14.6763 6.46476L15.4187 7.31195L15.3165 8.43409ZM16.2081 6.81217L16.3515 6.57199L16.4943 6.81217L16.7673 6.87402L16.5828 7.08418L16.6083 7.36297L16.3512 7.25281L16.0941 7.36297L16.1196 7.08418L15.9354 6.87402L16.2081 6.81217Z" fill="white"/>
<path d="M18.7784 9.13154L19.8141 8.68616L20.8498 9.13154L20.7462 8.00918L21.4895 7.16244L20.3904 6.91346L19.8141 5.94482L19.2383 6.91368L18.1392 7.16267L18.8825 8.00941L18.7784 9.13154ZM19.6717 7.5103L19.8146 7.27035L19.957 7.5103L20.2295 7.5717L20.0453 7.78141L20.0708 8.05929L19.8141 7.94913L19.5579 8.05929L19.5834 7.78141L19.3992 7.5717L19.6717 7.5103Z" fill="white"/>
<path d="M21.8413 9.93949L21.7364 11.0632L22.773 10.6165L23.8091 11.0632L23.7041 9.93949L24.4497 9.0923L23.3484 8.84467L22.773 7.87378L22.1971 8.84467L21.0962 9.0923L21.8413 9.93949ZM22.6312 9.44129L22.7732 9.20178L22.9152 9.44129L23.1867 9.50246L23.003 9.71172L23.0289 9.98915L22.7732 9.87877L22.517 9.98915L22.5429 9.71172L22.3592 9.50246L22.6312 9.44129Z" fill="white"/>
<path d="M22.1973 16.3247V13.1306H23.1003V12.4533H21.0682V10.6479H21.5215V9.9707H21.0682H11.5875H11.1347V10.6479H11.5875V12.4533H9.55587V13.1306H10.4588V25.772H8.87866V26.4492H10.4588H14.7478H18.1341H20.6115C21.3355 27.805 21.626 27.8068 21.7565 27.8068C21.9337 27.8068 22.4041 27.8068 23.8515 24.4262C24.1836 23.651 25.2664 21.0273 25.2664 19.804C25.2662 18.0182 23.9246 16.5426 22.1973 16.3247ZM12.2647 10.6477H20.391V12.4531H12.2647V10.6477ZM15.425 25.7718V21.7088H17.4569V25.7718H15.425ZM18.1341 25.7718V21.0315H14.7478V25.7718H11.136V13.1306H21.5199V16.3058C21.2871 16.3213 21.061 16.3597 20.8427 16.4189V14.8245C20.8427 14.2642 20.3865 13.808 19.826 13.808H19.6016C19.0413 13.808 18.5853 14.2642 18.5853 14.8245V16.5168H19.2625V14.8245C19.2625 14.6373 19.4147 14.4852 19.6016 14.4852H19.826C20.0133 14.4852 20.1655 14.6373 20.1655 14.8245V16.5168H20.537C19.202 17.0139 18.2467 18.2979 18.2467 19.804C18.2467 21.0273 19.3296 23.651 19.6616 24.4262C19.8869 24.9526 20.0885 25.3968 20.2691 25.772L18.1341 25.7718ZM21.7565 27.0427C21.0334 26.1533 18.9241 21.3056 18.9241 19.804C18.9241 18.2419 20.1948 16.9712 21.7565 16.9712C23.3185 16.9712 24.5892 18.2419 24.5892 19.804C24.589 21.3056 22.4799 26.1533 21.7565 27.0427Z" fill="white"/>
<path d="M21.7565 18.1438C20.8407 18.1438 20.0962 18.8885 20.0962 19.8039C20.0962 20.7192 20.8409 21.4639 21.7565 21.4639C22.6718 21.4639 23.4165 20.7192 23.4165 19.8039C23.4165 18.8885 22.6718 18.1438 21.7565 18.1438ZM21.7565 20.7865C21.2143 20.7865 20.7734 20.3456 20.7734 19.8036C20.7734 19.2616 21.2143 18.8208 21.7565 18.8208C22.2982 18.8208 22.7393 19.2616 22.7393 19.8036C22.7393 20.3456 22.2985 20.7865 21.7565 20.7865Z" fill="white"/>
</svg>
