<svg width="33" height="33" viewBox="0 0 33 33" fill="none" xmlns="http://www.w3.org/2000/svg">
<circle cx="16.5" cy="16.5" r="16.5" fill="#1C4961"/>
<path d="M16.5429 25.5038C15.4425 25.9802 14.3421 26.4591 13.2417 26.9355C13.0869 27.0032 12.9321 27.0709 12.7774 27.1362C13.0192 27.2765 13.2635 27.4144 13.5053 27.5546C13.5053 27.0105 13.5053 26.4639 13.5053 25.9198C13.4569 26.0334 13.411 26.1471 13.3626 26.2608C13.8028 25.8424 14.2429 25.424 14.6855 25.0056C14.9443 24.7613 15.203 24.5147 15.4594 24.2704C15.6239 24.1156 15.7714 23.9802 15.7641 23.7263C15.7472 23.1821 15.7182 22.6404 15.6964 22.0962C15.6601 21.2522 15.6263 20.4106 15.59 19.5666C15.5682 19.0611 15.5561 18.5532 15.5271 18.0454C15.5271 18.0381 15.5271 18.0284 15.5271 18.0212C15.515 17.7237 15.2248 17.4504 14.9153 17.5544C14.6275 17.6512 14.3397 17.7479 14.0519 17.8446C13.3626 18.0744 12.6758 18.3066 11.9865 18.5363C11.1498 18.8168 10.313 19.0974 9.47863 19.3779C8.75552 19.6198 8.03241 19.8616 7.3093 20.1059C6.96105 20.2219 6.6007 20.3235 6.25728 20.459C6.25245 20.4614 6.24761 20.4614 6.24277 20.4638C6.44592 20.6186 6.65149 20.7758 6.85464 20.9305C6.85464 20.2848 6.85464 19.6391 6.85464 18.9934C6.77483 19.1337 6.69502 19.2715 6.61521 19.4118C6.80143 19.2763 6.98523 19.1409 7.17145 19.0055C7.63821 18.6621 8.10738 18.3211 8.57414 17.9776C9.20293 17.5181 9.8293 17.0562 10.4581 16.5967C11.1183 16.113 11.7761 15.6293 12.4364 15.1457C12.9999 14.7321 13.5634 14.3186 14.1269 13.905C14.4678 13.6559 14.8064 13.4068 15.1474 13.1577C15.2127 13.1093 15.278 13.0634 15.3409 13.015C15.5707 12.8385 15.532 12.5628 15.532 12.3088C15.532 11.6123 15.532 10.9158 15.532 10.2193C15.532 9.51072 15.532 8.80212 15.532 8.09352C15.532 7.96534 15.532 7.83717 15.532 7.709C15.532 7.64611 15.5392 7.58565 15.5416 7.52519C15.5441 7.46957 15.5344 7.57114 15.5344 7.57114C15.5392 7.55663 15.5392 7.53728 15.5416 7.52277C15.5489 7.48408 15.5561 7.4478 15.5658 7.41153C15.5827 7.34864 15.6021 7.28819 15.6239 7.2253C15.6505 7.14308 15.5779 7.31479 15.6311 7.20837C15.648 7.17452 15.665 7.14066 15.6819 7.10922C15.7133 7.0536 15.7496 7.00039 15.7835 6.94718C15.8318 6.87221 15.7278 7.01248 15.7835 6.94477C15.8077 6.91574 15.8318 6.88914 15.856 6.86254C15.902 6.81175 15.9528 6.7658 16.0036 6.71986C16.0156 6.71018 16.0277 6.7005 16.0398 6.69083C16.0809 6.65456 16.006 6.72227 16.0036 6.71743C16.0036 6.70776 16.0834 6.66181 16.0955 6.65456C16.1535 6.61827 16.214 6.58442 16.2768 6.55298C16.2913 6.54573 16.3059 6.54089 16.3204 6.53363C16.3687 6.50461 16.2768 6.5554 16.2793 6.55056C16.2817 6.53847 16.3712 6.5167 16.3857 6.51187C16.4485 6.49252 16.5114 6.47559 16.5743 6.46108C16.5936 6.45624 16.7 6.44173 16.6227 6.45141C16.5525 6.46108 16.6106 6.45383 16.6251 6.45141C16.6541 6.44899 16.6807 6.44657 16.7073 6.44657C16.7629 6.44416 16.821 6.44416 16.8766 6.44657C16.9105 6.44899 16.9443 6.45141 16.9758 6.45383C17.0314 6.45624 16.9298 6.44657 16.9298 6.44657C16.9491 6.45383 16.9758 6.45383 16.9951 6.45866C17.0652 6.47317 17.133 6.4901 17.2007 6.51187C17.2321 6.52154 17.2611 6.53605 17.2926 6.54331C17.3458 6.56024 17.2466 6.52638 17.2515 6.52396C17.2587 6.52154 17.3023 6.54814 17.3095 6.55056C17.3675 6.57959 17.4232 6.60861 17.4764 6.64246C17.503 6.65939 17.5296 6.67874 17.5562 6.69567C17.6336 6.74646 17.5344 6.67632 17.5344 6.67632C17.5465 6.67632 17.5755 6.71018 17.5828 6.71743C17.6311 6.75854 17.6771 6.80208 17.7206 6.84803C17.7424 6.86979 17.7642 6.89399 17.7835 6.91816C17.7932 6.93026 17.8029 6.94235 17.8125 6.95444C17.8536 7.00039 17.7666 6.87947 17.7956 6.93267C17.827 6.99314 17.873 7.04634 17.9069 7.1068C17.9214 7.13582 17.9359 7.16243 17.9504 7.19144C17.9576 7.20595 17.9625 7.22047 17.9697 7.23498C17.9987 7.2906 17.9407 7.14791 17.9576 7.20837C17.977 7.27125 18.0012 7.3293 18.0181 7.39218C18.0278 7.42845 18.0374 7.46715 18.0447 7.50342C18.0471 7.52035 18.0495 7.53487 18.0544 7.5518C18.0689 7.61709 18.0471 7.45506 18.0495 7.52035C18.0761 7.97502 18.0592 8.4321 18.0592 8.88677C18.0592 9.68001 18.0592 10.4733 18.0592 11.2689C18.0592 11.5857 18.0592 11.9025 18.0592 12.2194C18.0592 12.3548 18.052 12.4951 18.0592 12.6305C18.0713 12.824 18.168 12.9546 18.318 13.0634C18.3494 13.0852 18.3809 13.1069 18.4099 13.1287C18.5381 13.2206 18.6662 13.3101 18.7944 13.402C19.2563 13.7285 19.7183 14.0574 20.1802 14.3839C20.8114 14.8313 21.4426 15.2787 22.0762 15.7261C22.7437 16.2001 23.4136 16.6741 24.0811 17.1481C24.6543 17.5544 25.2274 17.9607 25.7982 18.367C26.1416 18.6113 26.4874 18.8555 26.8309 19.0998C26.8792 19.1337 26.9252 19.1675 26.9735 19.2014C26.8937 19.0611 26.8139 18.9233 26.7341 18.783C26.7341 19.3973 26.7341 20.0115 26.7341 20.6258C26.7341 20.7129 26.7341 20.8024 26.7341 20.8894C26.9373 20.7347 27.1428 20.5775 27.346 20.4227C27.0582 20.3284 26.7728 20.234 26.485 20.1397C25.7934 19.91 25.0993 19.6826 24.4076 19.4529C23.5732 19.1772 22.7389 18.9015 21.9045 18.6258C21.1838 18.3864 20.4607 18.1494 19.74 17.9099C19.3893 17.7938 19.0387 17.6632 18.6856 17.5617C18.6807 17.5593 18.6759 17.5593 18.6711 17.5568C18.3591 17.4528 18.0713 17.7237 18.0592 18.0236C18.0423 18.4444 18.0229 18.8628 18.006 19.2836C17.9697 20.1204 17.9359 20.9547 17.8996 21.7915C17.873 22.4082 17.8488 23.0225 17.8222 23.6392C17.8198 23.6827 17.8149 23.7262 17.8174 23.7698C17.8222 23.9367 17.902 24.0624 18.0157 24.1712C18.2333 24.3792 18.451 24.5848 18.6687 24.7928C19.1741 25.274 19.6723 25.765 20.1874 26.2342C20.1971 26.2438 20.2092 26.2535 20.2189 26.2632C20.1705 26.1495 20.1245 26.0359 20.0762 25.9222C20.0762 26.4663 20.0762 27.0129 20.0762 27.557C20.318 27.4168 20.5623 27.2789 20.8041 27.1387C19.7037 26.6622 18.6034 26.1834 17.503 25.7069C17.3482 25.6392 17.1934 25.5715 17.0386 25.5062C16.8065 25.4046 16.509 25.4312 16.376 25.6803C16.2647 25.8883 16.301 26.2342 16.5501 26.343C17.6505 26.8194 18.7509 27.2983 19.8513 27.7747C20.006 27.8424 20.1608 27.9101 20.3156 27.9754C20.48 28.0456 20.6421 28.0698 20.8041 27.9754C20.9517 27.8884 21.0436 27.7287 21.0436 27.557C21.0436 27.2257 21.0436 26.892 21.0436 26.5607C21.0436 26.3769 21.0436 26.1955 21.0436 26.0117C21.0436 25.8424 21.0049 25.6852 20.8791 25.557C20.3519 25.025 19.7908 24.5243 19.2491 24.0068C19.0459 23.8157 18.8452 23.6223 18.6421 23.4312C18.6904 23.5449 18.7364 23.6585 18.7847 23.7722C18.8113 23.1241 18.8404 22.4735 18.867 21.8254C18.9105 20.7951 18.954 19.7649 18.9976 18.7346C19.0072 18.4976 19.0169 18.2606 19.0266 18.0236C18.8234 18.1784 18.6179 18.3356 18.4147 18.4904C18.7025 18.5847 18.9879 18.679 19.2757 18.7733C19.9674 19.0031 20.6614 19.2304 21.3531 19.4601C22.1875 19.7358 23.0218 20.0115 23.8562 20.2872C24.5769 20.5267 25.3 20.7637 26.0207 21.0031C26.3714 21.1192 26.722 21.2498 27.0751 21.3514C27.08 21.3538 27.0848 21.3538 27.0896 21.3562C27.3919 21.4553 27.7015 21.1917 27.7015 20.8894C27.7015 20.4396 27.7015 19.9898 27.7015 19.5375C27.7015 19.3078 27.7015 19.078 27.7015 18.8483C27.7015 18.8289 27.7015 18.8096 27.7015 18.7902C27.6942 18.6016 27.6096 18.471 27.4621 18.3646C27.4548 18.3598 27.4451 18.3525 27.4379 18.3477C26.9445 17.9922 26.4439 17.6439 25.9481 17.2908C25.0001 16.6185 24.0521 15.9462 23.1041 15.2763C22.1609 14.6088 21.2201 13.9413 20.2769 13.2714C19.7884 12.9255 19.3071 12.5604 18.8065 12.229C18.7993 12.2242 18.792 12.2194 18.7847 12.2145C18.8646 12.3548 18.9444 12.4926 19.0242 12.6329C19.0242 11.7913 19.0242 10.9497 19.0242 10.1081C19.0242 9.54216 19.0242 8.97867 19.0242 8.41276C19.0242 8.1298 19.0411 7.83717 19.0169 7.55421C18.9298 6.56024 18.1946 5.67267 17.1862 5.51064C16.6735 5.42841 16.1607 5.50338 15.7037 5.75732C15.2925 5.98465 14.9467 6.35709 14.7605 6.78998C14.6299 7.09471 14.5597 7.40911 14.5597 7.74285C14.5597 7.86619 14.5597 7.98953 14.5597 8.11287C14.5597 8.63042 14.5597 9.14796 14.5597 9.6655C14.5597 10.6377 14.5597 11.6075 14.5597 12.5797C14.5597 12.5991 14.5597 12.616 14.5597 12.6353C14.6396 12.4951 14.7194 12.3572 14.7992 12.2169C14.405 12.5072 14.0083 12.795 13.6141 13.0852C12.7193 13.7406 11.8221 14.3984 10.9273 15.0538C9.96715 15.7575 9.00704 16.4613 8.04692 17.1651C7.44957 17.6028 6.85222 18.0405 6.25487 18.4783C6.21133 18.5097 6.17022 18.5411 6.12669 18.5726C5.97674 18.6838 5.88726 18.8072 5.88242 19.0031C5.88 19.0684 5.88242 19.1337 5.88242 19.199C5.88242 19.7334 5.88242 20.2679 5.88242 20.8024C5.88242 20.8459 5.88242 20.887 5.88242 20.9305C5.88242 21.2304 6.1944 21.4989 6.49429 21.3973C6.78208 21.3006 7.06988 21.2038 7.35767 21.1071C8.04692 20.8773 8.73375 20.6452 9.423 20.4154C10.2598 20.1349 11.0966 19.8543 11.9309 19.5738C12.654 19.332 13.3771 19.0901 14.1002 18.8459C14.4485 18.7298 14.8088 18.6282 15.1523 18.4928C15.1571 18.4904 15.1619 18.4904 15.1668 18.4879C14.9636 18.3332 14.7581 18.176 14.5549 18.0212C14.5815 18.6693 14.6105 19.3199 14.6371 19.968C14.6807 20.9983 14.7242 22.0285 14.7677 23.0588C14.7774 23.2958 14.7871 23.5328 14.7968 23.7698C14.8451 23.6561 14.8911 23.5425 14.9394 23.4288C14.4509 23.8931 13.9624 24.3575 13.4739 24.8218C13.2296 25.054 12.9854 25.2861 12.7411 25.5183C12.6202 25.632 12.5452 25.765 12.5379 25.9391C12.5331 26.0866 12.5379 26.2366 12.5379 26.3841C12.5379 26.7735 12.5379 27.1628 12.5379 27.5522C12.5379 27.7239 12.6298 27.8835 12.7774 27.9706C12.9394 28.0649 13.1014 28.0407 13.2659 27.9706C14.3663 27.4942 15.4667 27.0153 16.567 26.5389C16.7218 26.4712 16.8766 26.4035 17.0314 26.3382C17.2636 26.2366 17.3337 25.8787 17.2055 25.6755C17.0483 25.4337 16.792 25.395 16.5429 25.5038Z" fill="white"/>
</svg>
