<svg width="44" height="44" viewBox="0 0 44 44" fill="none" xmlns="http://www.w3.org/2000/svg">
<path d="M44.0001 22.0001C44.0001 9.85164 34.1485 0 22.0001 0C9.85164 0 0 9.85164 0 22.0001C0 34.1485 9.85164 44.0001 22.0001 44.0001C22.1293 44.0001 22.2579 43.9974 22.3868 43.9951V26.869H17.6602V21.3606H22.3868V17.3071C22.3868 12.606 25.2566 10.0473 29.4501 10.0473C31.4582 10.0473 33.1844 10.1971 33.6876 10.2639V15.1771H30.7959C28.5145 15.1771 28.0728 16.2614 28.0728 17.8522V21.3606H33.5278L32.8168 26.869H28.0728V43.1501C37.2685 40.5139 44.0001 32.042 44.0001 22.0001Z" fill="currentColor"/>
</svg>
