<svg width="46" height="46" viewBox="0 0 46 46" fill="none" xmlns="http://www.w3.org/2000/svg">
<path d="M27.3525 23C27.3525 25.3785 25.4244 27.3066 23.0459 27.3066C20.6674 27.3066 18.7393 25.3785 18.7393 23C18.7393 20.6215 20.6674 18.6934 23.0459 18.6934C25.4244 18.6934 27.3525 20.6215 27.3525 23Z" fill="currentColor"/>
<path d="M33.118 15.3808C32.911 14.8198 32.5807 14.3121 32.1516 13.8953C31.7348 13.4661 31.2273 13.1358 30.666 12.9288C30.2108 12.752 29.5269 12.5416 28.2672 12.4842C26.9045 12.4221 26.496 12.4087 23.0463 12.4087C19.5962 12.4087 19.1877 12.4217 17.8254 12.4839C16.5657 12.5416 15.8815 12.752 15.4266 12.9288C14.8652 13.1358 14.3575 13.4661 13.941 13.8953C13.5119 14.3121 13.1816 14.8195 12.9742 15.3808C12.7974 15.8361 12.587 16.5203 12.5296 17.78C12.4675 19.1423 12.4541 19.5508 12.4541 23.0009C12.4541 26.4506 12.4675 26.8591 12.5296 28.2218C12.587 29.4814 12.7974 30.1653 12.9742 30.6206C13.1816 31.1819 13.5115 31.6893 13.9407 32.1061C14.3575 32.5353 14.8649 32.8656 15.4262 33.0726C15.8815 33.2498 16.5657 33.4602 17.8254 33.5175C19.1877 33.5797 19.5959 33.5927 23.0459 33.5927C26.4963 33.5927 26.9049 33.5797 28.2668 33.5175C29.5265 33.4602 30.2107 33.2498 30.666 33.0726C31.7928 32.638 32.6833 31.7474 33.118 30.6206C33.2948 30.1653 33.5053 29.4814 33.5629 28.2218C33.6251 26.8591 33.6381 26.4506 33.6381 23.0009C33.6381 19.5508 33.6251 19.1423 33.5629 17.78C33.5056 16.5203 33.2952 15.8361 33.118 15.3808ZM23.0463 29.6349C19.382 29.6349 16.4115 26.6648 16.4115 23.0006C16.4115 19.3363 19.382 16.3662 23.0463 16.3662C26.7102 16.3662 29.6806 19.3363 29.6806 23.0006C29.6806 26.6648 26.7102 29.6349 23.0463 29.6349ZM29.9429 17.6543C29.0867 17.6543 28.3925 16.9601 28.3925 16.1039C28.3925 15.2476 29.0867 14.5534 29.9429 14.5534C30.7992 14.5534 31.4934 15.2476 31.4934 16.1039C31.493 16.9601 30.7992 17.6543 29.9429 17.6543Z" fill="currentColor"/>
<path d="M23.0459 0.5C10.6214 0.5 0.545898 10.5755 0.545898 23C0.545898 35.4245 10.6214 45.5 23.0459 45.5C35.4704 45.5 45.5459 35.4245 45.5459 23C45.5459 10.5755 35.4704 0.5 23.0459 0.5ZM35.8879 28.3266C35.8254 29.702 35.6067 30.6409 35.2874 31.4629C34.6162 33.1984 33.2443 34.5703 31.5088 35.2415C30.6872 35.5608 29.7479 35.7791 28.3729 35.8419C26.9951 35.9048 26.555 35.9199 23.0462 35.9199C19.5371 35.9199 19.0973 35.9048 17.7192 35.8419C16.3442 35.7791 15.4049 35.5608 14.5833 35.2415C13.7209 34.917 12.9402 34.4086 12.2947 33.7511C11.6376 33.106 11.1291 32.3249 10.8047 31.4629C10.4854 30.6413 10.2667 29.702 10.2042 28.327C10.1407 26.9489 10.1259 26.5087 10.1259 23C10.1259 19.4912 10.1407 19.0511 10.2039 17.6733C10.2664 16.298 10.4847 15.359 10.804 14.537C11.1284 13.675 11.6373 12.8939 12.2947 12.2488C12.9398 11.5913 13.7209 11.0829 14.583 10.7584C15.4049 10.4391 16.3439 10.2208 17.7192 10.158C19.097 10.0951 19.5371 10.08 23.0459 10.08C26.5546 10.08 26.9948 10.0951 28.3725 10.1583C29.7479 10.2208 30.6869 10.4391 31.5088 10.7581C32.3709 11.0825 33.1519 11.5913 33.7974 12.2488C34.4545 12.8942 34.9633 13.675 35.2874 14.537C35.607 15.359 35.8254 16.298 35.8882 17.6733C35.951 19.0511 35.9658 19.4912 35.9658 23C35.9658 26.5087 35.951 26.9489 35.8879 28.3266Z" fill="currentColor"/>
</svg>
