<svg width="45" height="44" viewBox="0 0 45 44" fill="none" xmlns="http://www.w3.org/2000/svg">
<path d="M22.9722 0C10.8238 0 0.972168 9.85162 0.972168 22C0.972168 34.1484 10.8238 44 22.9722 44C35.1205 44 44.9722 34.1484 44.9722 22C44.9722 9.85162 35.1205 0 22.9722 0ZM16.5792 33.2578H11.2212V17.1382H16.5792V33.2578ZM13.9004 14.937H13.8655C12.0675 14.937 10.9047 13.6993 10.9047 12.1524C10.9047 10.5706 12.1031 9.36714 13.936 9.36714C15.7689 9.36714 16.8968 10.5706 16.9317 12.1524C16.9317 13.6993 15.7689 14.937 13.9004 14.937ZM35.899 33.2578H30.5417V24.6342C30.5417 22.4669 29.7659 20.9889 27.8273 20.9889C26.3472 20.9889 25.4657 21.9859 25.0783 22.9483C24.9366 23.2927 24.902 23.7741 24.902 24.2558V33.2578H19.5444C19.5444 33.2578 19.6145 18.6504 19.5444 17.1381H24.902V19.4205C25.614 18.3221 26.888 16.7598 29.7307 16.7598C33.2558 16.7598 35.899 19.0637 35.899 24.0148V33.2578Z" fill="currentColor"/>
</svg>
